<?xml version="1.0" standalone="no"?>
<!DOCTYPE svg PUBLIC "-//W3C//DTD SVG 20010904//EN"
 "http://www.w3.org/TR/2001/REC-SVG-20010904/DTD/svg10.dtd">
<svg version="1.0" xmlns="http://www.w3.org/2000/svg"
 width="362.000000pt" height="466.000000pt" viewBox="0 0 362.000000 466.000000"
 preserveAspectRatio="xMidYMid meet">
<metadata>
Created by potrace 1.13, written by Peter Selinger 2001-2015
</metadata>
<g transform="translate(0.000000,466.000000) scale(0.100000,-0.100000)"
fill="#000000" stroke="none">
<path d="M0 2330 l0 -2330 1810 0 1810 0 0 2330 0 2330 -930 0 c-717 0 -930
-3 -930 -12 0 -9 -3 -9 -12 0 -18 18 -269 17 -262 -1 3 -8 -5 -13 -22 -15 -15
-1 -32 -6 -38 -10 -19 -15 -46 -22 -46 -12 0 6 9 10 20 10 11 0 20 5 20 10 0
6 9 10 20 10 11 0 20 5 20 10 0 7 -250 10 -730 10 l-730 0 0 -2330z m2455
1572 c22 -16 37 -43 41 -74 2 -18 6 -45 9 -60 2 -16 1 -28 -3 -28 -4 0 -6 -17
-6 -38 1 -20 2 -52 3 -69 1 -26 5 -33 21 -33 11 0 20 -4 20 -10 0 -5 -5 -10
-11 -10 -5 0 -8 -4 -4 -10 3 -5 12 -7 20 -3 9 3 15 -1 15 -11 0 -9 -4 -16 -10
-16 -5 0 -10 -4 -10 -10 0 -5 11 -10 24 -10 14 0 28 -4 31 -10 3 -5 14 -10 23
-10 21 0 112 -80 112 -97 0 -12 -12 -17 -31 -15 -8 1 -132 -14 -194 -23 -22
-4 -58 -15 -81 -26 -22 -10 -44 -19 -48 -19 -4 0 -21 -9 -37 -21 -16 -11 -29
-17 -29 -12 0 4 -5 0 -11 -9 -5 -10 -18 -18 -28 -18 -30 0 -71 -24 -71 -42 0
-10 -4 -18 -10 -18 -5 0 -10 5 -10 10 0 6 -9 10 -20 10 -11 0 -20 -4 -20 -10
0 -5 5 -10 10 -10 6 0 10 -9 10 -20 0 -11 7 -20 15 -20 16 0 45 -60 45 -92 0
-11 16 -36 35 -55 29 -29 38 -33 50 -23 9 8 30 10 57 6 107 -15 176 -18 182
-7 4 6 16 11 27 11 10 0 27 4 37 9 9 5 32 15 49 21 18 7 30 16 27 21 -3 5 3 9
13 9 10 0 24 9 31 20 7 11 18 20 26 20 8 0 27 7 42 15 27 14 29 13 34 -3 3 -9
12 -28 21 -42 9 -14 22 -56 28 -94 10 -59 10 -71 -4 -86 -14 -15 -14 -20 -1
-45 10 -20 12 -34 5 -46 -5 -10 -11 -37 -12 -60 -2 -27 -11 -49 -27 -66 -19
-20 -21 -26 -9 -33 10 -7 5 -9 -16 -7 -25 2 -30 -1 -27 -18 2 -17 1 -18 -8 -5
-9 11 -13 12 -17 3 -8 -20 -23 -15 -23 7 0 21 -33 29 -44 11 -4 -5 -14 -8 -24
-6 -9 2 -20 4 -24 4 -5 1 -8 8 -8 17 0 14 -2 15 -17 3 -15 -12 -16 -12 -8 1 8
13 7 13 -10 0 -17 -14 -18 -13 -13 7 6 22 -13 34 -57 37 -11 1 -24 11 -30 23
-6 14 -16 21 -25 18 -9 -3 -19 4 -25 18 -7 16 -21 23 -51 27 -23 3 -46 4 -53
2 -16 -5 -14 -42 2 -42 25 0 45 -35 49 -85 3 -46 1 -50 -20 -53 -13 -2 -30 2
-39 9 -12 11 -17 10 -24 -4 -5 -9 -16 -14 -24 -11 -9 4 -15 0 -15 -9 0 -8 -7
-20 -15 -27 -20 -17 -134 -40 -141 -29 -3 5 -16 9 -29 9 -13 0 -26 4 -30 10
-3 6 -15 6 -30 0 -13 -5 -47 -10 -75 -11 -46 -2 -54 0 -75 27 -26 31 -32 73
-14 106 17 31 2 34 -46 8 -27 -15 -45 -32 -45 -42 0 -10 -3 -18 -8 -18 -4 0
-12 -10 -17 -22 -6 -12 -29 -31 -52 -43 -23 -11 -42 -24 -43 -28 0 -5 -7 -15
-15 -24 -11 -11 -19 -12 -29 -4 -9 8 -18 7 -32 -5 -10 -8 -13 -13 -6 -9 7 4
12 0 12 -10 0 -9 -3 -14 -7 -12 -15 9 -54 -13 -47 -24 5 -8 0 -10 -14 -7 -26
7 -45 -13 -35 -38 6 -16 4 -17 -8 -7 -12 10 -17 8 -27 -7 -8 -14 -8 -20 0 -22
7 -3 11 -23 10 -47 -1 -24 0 -47 3 -52 8 -12 35 1 35 17 0 18 8 18 26 -1 9 -8
11 -15 5 -15 -6 0 -11 -4 -11 -10 0 -5 9 -10 20 -10 19 0 26 -19 21 -58 -1 -8
4 -21 11 -30 11 -15 11 -15 -3 -4 -9 7 -22 11 -29 10 -7 -2 -20 12 -29 29 -9
18 -22 33 -28 33 -7 0 -13 5 -13 10 0 6 -9 10 -20 10 -11 0 -36 9 -56 21 -26
14 -40 17 -47 10 -6 -6 -19 -11 -28 -11 -10 0 -19 -6 -22 -12 -2 -8 -8 -9 -13
-4 -5 5 -4 11 4 13 17 7 15 23 -3 23 -9 0 -15 6 -13 13 1 6 -4 23 -11 35 -7
13 -10 35 -7 48 4 14 2 24 -4 24 -5 0 -10 18 -10 39 0 22 -5 43 -10 46 -6 4
-9 18 -8 33 1 15 -4 37 -10 49 -14 26 -17 333 -3 333 5 0 11 18 15 40 3 23 12
43 19 46 7 2 35 -1 62 -7 91 -20 128 -22 182 -9 41 10 56 11 65 2 9 -9 17 -7
32 6 11 9 16 12 13 5 -4 -6 -3 -14 3 -18 5 -3 10 -11 10 -16 0 -15 -43 -6 -57
11 -11 13 -12 13 -13 -2 0 -21 -11 -23 -28 -6 -9 9 -12 7 -12 -8 0 -27 33 -43
100 -48 30 -2 60 -5 65 -6 6 -2 17 -1 25 2 8 3 40 13 71 23 31 9 65 23 75 30
11 8 28 15 39 15 11 1 40 14 65 29 34 21 44 33 42 50 -1 13 7 34 18 48 11 14
20 31 20 39 0 7 6 15 13 17 9 4 8 8 -3 17 -11 9 -12 13 -2 17 18 7 15 23 -6
23 -10 0 -28 7 -40 16 -12 8 -22 11 -22 6 0 -5 -30 7 -67 26 l-68 34 -120 -6
c-141 -6 -265 2 -265 18 0 6 15 17 33 24 57 24 82 37 92 48 6 7 21 14 35 18
15 3 35 23 50 46 13 22 28 40 32 40 4 0 8 7 8 15 0 8 7 15 15 15 8 0 15 5 15
10 0 6 7 10 15 10 8 0 24 8 34 18 40 35 51 42 69 42 10 0 27 9 37 20 10 11 24
20 30 20 7 0 15 7 18 14 3 8 21 23 39 32 18 9 36 22 40 28 4 6 8 7 8 3 0 -18
40 15 40 33 0 11 4 20 9 20 5 0 19 23 32 51 l24 50 63 -3 c53 -3 62 -1 62 13
0 32 40 48 125 48 44 1 85 -3 90 -7z m-560 -1376 c14 -8 38 -28 52 -45 29 -34
113 -80 156 -83 54 -5 20 -23 -38 -20 -32 1 -63 -2 -69 -6 -6 -5 -60 -10 -121
-11 -82 -1 -115 2 -130 12 -16 13 -17 17 -6 31 7 9 20 16 27 16 8 0 15 6 15
13 4 43 19 78 30 72 5 -4 9 -1 9 6 0 9 4 9 15 -1 17 -14 36 -5 28 15 -6 19 -2
19 32 1z m526 -173 c9 -59 6 -73 -12 -68 -13 4 -27 -2 -43 -19 -13 -14 -30
-26 -37 -26 -8 0 -25 -9 -39 -20 -16 -13 -41 -20 -70 -20 -42 -1 -80 -17 -80
-35 0 -9 81 -1 140 15 25 6 57 14 73 17 15 3 27 12 27 19 0 8 9 14 20 14 11 0
23 0 27 1 4 0 9 -5 11 -11 3 -8 -3 -10 -18 -5 -19 6 -22 4 -16 -10 7 -20 -28
-65 -51 -65 -7 0 -13 -11 -13 -24 0 -14 -4 -28 -10 -31 -5 -3 -10 -16 -10 -28
0 -16 -3 -18 -12 -9 -8 8 -8 15 1 26 11 13 10 18 -2 31 -21 20 -30 19 -22 -4
7 -24 -9 -35 -57 -37 -21 -1 -45 -7 -53 -14 -12 -10 -15 -10 -15 4 0 18 -25
22 -35 5 -4 -6 -14 -8 -22 -4 -20 7 -63 -21 -63 -41 0 -11 -6 -13 -20 -9 -25
8 -26 -7 -2 -27 22 -19 98 -49 106 -41 3 3 12 0 21 -7 11 -9 15 -9 15 -1 0 8
20 11 58 9 55 -2 142 25 142 43 0 4 9 11 20 14 11 3 20 13 20 21 0 11 6 13 19
9 11 -3 22 -1 26 5 3 5 -1 10 -9 10 -9 0 -16 5 -16 11 0 6 -9 8 -20 4 -21 -7
-28 9 -9 21 6 3 9 19 5 35 -3 16 -1 29 4 29 13 0 28 -32 23 -47 -3 -7 2 -13
11 -13 19 0 18 -3 6 39 -10 34 2 67 20 56 4 -3 13 2 20 10 7 8 17 12 23 8 5
-3 7 -1 3 5 -3 6 -2 13 4 17 5 3 10 1 10 -4 0 -6 9 -11 20 -11 11 0 20 5 20
10 0 6 7 10 16 10 10 0 13 -6 9 -19 -3 -11 0 -21 8 -24 12 -4 13 -15 4 -59 -6
-29 -19 -68 -29 -86 -10 -18 -18 -41 -18 -52 0 -10 -5 -22 -11 -25 -6 -4 -8
-13 -5 -20 5 -13 -55 -138 -81 -167 -21 -24 -116 -68 -146 -68 -14 0 -27 -6
-30 -12 -3 -10 -9 -10 -24 -1 -14 8 -24 8 -31 1 -14 -14 -140 -12 -208 3 -34
8 -68 24 -92 44 -20 18 -47 37 -59 44 -13 6 -23 18 -23 26 0 8 -5 15 -10 15
-17 0 -70 42 -64 52 3 4 0 8 -6 8 -18 0 -80 71 -80 91 0 11 7 22 15 26 21 8
33 -6 15 -17 -8 -5 -11 -12 -8 -16 4 -3 14 0 22 9 13 13 13 17 -6 37 -16 17
-18 24 -8 30 9 5 9 9 1 14 -6 4 -11 30 -11 58 0 44 2 49 15 38 9 -7 19 -10 22
-6 4 4 1 12 -7 17 -12 8 -10 9 6 4 30 -8 51 19 33 42 -13 15 -9 16 39 11 50
-5 64 1 68 27 0 6 2 16 2 23 3 19 46 14 70 -8 l21 -20 11 20 c13 24 32 25 64
4 17 -11 26 -12 31 -4 13 21 52 29 83 18 27 -10 33 -9 62 15 34 29 55 34 65
16 5 -7 15 -3 30 11 18 17 27 19 42 12 15 -8 22 -6 31 9 12 19 31 26 33 12z"/>
</g>
</svg>
